<svg width="50" height="26" viewBox="0 0 50 26" fill="none" xmlns="http://www.w3.org/2000/svg">
<path d="M48.2143 11.2143H46.4286V5.85714C46.4286 4.43634 45.8642 3.07373 44.8595 2.06907C43.8548 1.06441 42.4922 0.5 41.0714 0.5H35.7143C34.2935 0.5 32.9309 1.06441 31.9262 2.06907C30.9216 3.07373 30.3571 4.43634 30.3571 5.85714V11.2143H19.6429V5.85714C19.6429 4.43634 19.0784 3.07373 18.0738 2.06907C17.0691 1.06441 15.7065 0.5 14.2857 0.5H8.92857C7.50777 0.5 6.14516 1.06441 5.1405 2.06907C4.13584 3.07373 3.57143 4.43634 3.57143 5.85714V11.2143H1.78571C1.31211 11.2143 0.85791 11.4024 0.523023 11.7373C0.188137 12.0722 0 12.5264 0 13C0 13.4736 0.188137 13.9278 0.523023 14.2627C0.85791 14.5976 1.31211 14.7857 1.78571 14.7857H3.57143V20.1429C3.57143 21.5637 4.13584 22.9263 5.1405 23.9309C6.14516 24.9356 7.50777 25.5 8.92857 25.5H14.2857C15.7065 25.5 17.0691 24.9356 18.0738 23.9309C19.0784 22.9263 19.6429 21.5637 19.6429 20.1429V14.7857H30.3571V20.1429C30.3571 21.5637 30.9216 22.9263 31.9262 23.9309C32.9309 24.9356 34.2935 25.5 35.7143 25.5H41.0714C42.4922 25.5 43.8548 24.9356 44.8595 23.9309C45.8642 22.9263 46.4286 21.5637 46.4286 20.1429V14.7857H48.2143C48.6879 14.7857 49.1421 14.5976 49.477 14.2627C49.8119 13.9278 50 13.4736 50 13C50 12.5264 49.8119 12.0722 49.477 11.7373C49.1421 11.4024 48.6879 11.2143 48.2143 11.2143ZM16.0714 20.1429C16.0714 20.6165 15.8833 21.0707 15.5484 21.4055C15.2135 21.7404 14.7593 21.9286 14.2857 21.9286H8.92857C8.45497 21.9286 8.00077 21.7404 7.66588 21.4055C7.33099 21.0707 7.14286 20.6165 7.14286 20.1429V5.85714C7.14286 5.38354 7.33099 4.92934 7.66588 4.59445C8.00077 4.25957 8.45497 4.07143 8.92857 4.07143H14.2857C14.7593 4.07143 15.2135 4.25957 15.5484 4.59445C15.8833 4.92934 16.0714 5.38354 16.0714 5.85714V20.1429ZM42.8571 20.1429C42.8571 20.6165 42.669 21.0707 42.3341 21.4055C41.9992 21.7404 41.545 21.9286 41.0714 21.9286H35.7143C35.2407 21.9286 34.7865 21.7404 34.4516 21.4055C34.1167 21.0707 33.9286 20.6165 33.9286 20.1429V5.85714C33.9286 5.38354 34.1167 4.92934 34.4516 4.59445C34.7865 4.25957 35.2407 4.07143 35.7143 4.07143H41.0714C41.545 4.07143 41.9992 4.25957 42.3341 4.59445C42.669 4.92934 42.8571 5.38354 42.8571 5.85714V20.1429Z" fill="black"/>
</svg>
