<svg width="40" height="46" viewBox="0 0 40 46" fill="none" xmlns="http://www.w3.org/2000/svg">
<path d="M22.3478 33.9039V32.5535C22.3478 32.3772 22.2778 32.2082 22.1532 32.0836C22.0286 31.959 21.8596 31.889 21.6833 31.889C21.5071 31.889 21.3381 31.959 21.2135 32.0836C21.0889 32.2082 21.0189 32.3772 21.0189 32.5535V34.1798C21.0189 34.2672 21.0361 34.3537 21.0696 34.4345C21.1031 34.5152 21.1522 34.5885 21.2141 34.6502L25.1529 38.5777C25.3413 38.7692 25.4463 39.0276 25.4448 39.2963C25.4433 39.5651 25.3354 39.8222 25.1448 40.0117C24.9542 40.2011 24.6963 40.3073 24.4276 40.3071C24.1588 40.3068 23.9011 40.2002 23.7108 40.0105L22.1524 38.4568C22.0594 38.364 21.9411 38.301 21.8122 38.2755C21.6834 38.25 21.5499 38.2633 21.4286 38.3136C21.3074 38.364 21.2037 38.4491 21.1308 38.5583C21.0578 38.6675 21.0189 38.7959 21.0189 38.9272V43.0225C21.0189 43.2927 20.9115 43.5519 20.7205 43.743C20.5294 43.934 20.2703 44.0414 20 44.0414C19.7298 44.0414 19.4707 43.934 19.2796 43.743C19.0886 43.5519 18.9812 43.2927 18.9812 43.0225V38.9273C18.9812 38.7959 18.9423 38.6676 18.8693 38.5583C18.7964 38.4491 18.6927 38.364 18.5714 38.3136C18.4501 38.2633 18.3166 38.25 18.1878 38.2755C18.059 38.301 17.9406 38.3641 17.8476 38.4568L16.3172 39.9828C16.1362 40.1684 15.893 40.2803 15.6343 40.2971C15.3757 40.3139 15.12 40.2344 14.9165 40.0738C14.8078 39.9839 14.719 39.8723 14.656 39.7461C14.593 39.6199 14.557 39.482 14.5505 39.3411C14.544 39.2002 14.567 39.0595 14.6181 38.928C14.6692 38.7965 14.7473 38.6772 14.8472 38.5777L18.786 34.6503C18.8479 34.5886 18.897 34.5152 18.9305 34.4345C18.964 34.3538 18.9812 34.2672 18.9812 34.1798V26.6775C18.9812 26.4521 18.9219 26.2307 18.8093 26.0355C18.6967 25.8403 18.5347 25.6782 18.3396 25.5654C18.1445 25.4526 17.9232 25.3931 17.6978 25.3929C17.4725 25.3927 17.251 25.4518 17.0557 25.5642L10.5378 29.3164C10.4622 29.36 10.3958 29.418 10.3426 29.4873C10.2893 29.5565 10.2503 29.6355 10.2276 29.7199L8.78598 35.0849C8.733 35.2792 8.62377 35.4534 8.47203 35.5856C8.32029 35.7179 8.13282 35.8024 7.9332 35.8284C7.73358 35.8544 7.53073 35.8208 7.35017 35.7318C7.1696 35.6428 7.01939 35.5024 6.91842 35.3282C6.85165 35.2134 6.80834 35.0864 6.79102 34.9547C6.7737 34.823 6.7827 34.6892 6.81751 34.561L7.38788 32.4385C7.42199 32.3116 7.41771 32.1774 7.37558 32.0529C7.33344 31.9285 7.25536 31.8193 7.15118 31.7392C7.04701 31.6591 6.92143 31.6117 6.79032 31.603C6.65921 31.5943 6.52845 31.6246 6.41459 31.6902L2.8578 33.7379C2.62365 33.8726 2.34572 33.9091 2.08473 33.8395C1.82374 33.7699 1.60091 33.5998 1.46492 33.3664C1.39823 33.2511 1.35497 33.1238 1.33761 32.9918C1.32024 32.8597 1.32913 32.7256 1.36375 32.597C1.39837 32.4684 1.45805 32.3479 1.53936 32.2424C1.62066 32.137 1.722 32.0486 1.83755 31.9824L5.39442 29.9347C5.50842 29.8691 5.60038 29.7711 5.65865 29.6532C5.71692 29.5353 5.73887 29.4027 5.72174 29.2723C5.7046 29.1419 5.64915 29.0195 5.5624 28.9206C5.47565 28.8217 5.3615 28.7508 5.23442 28.7169L3.10577 28.1481C2.97586 28.1146 2.85388 28.0557 2.7469 27.9747C2.63993 27.8937 2.55007 27.7924 2.48255 27.6764C2.41502 27.5605 2.37116 27.4323 2.35351 27.2993C2.33586 27.1663 2.34476 27.0311 2.37971 26.9016C2.41466 26.7721 2.47496 26.6508 2.55711 26.5447C2.63927 26.4386 2.74165 26.3499 2.85833 26.2837C2.975 26.2174 3.10366 26.175 3.23684 26.1588C3.37003 26.1427 3.5051 26.1531 3.63424 26.1895L9.01456 27.6271C9.18438 27.6724 9.36523 27.6486 9.51759 27.561L16.0314 23.811C16.227 23.6984 16.3896 23.5361 16.5026 23.3407C16.6156 23.1452 16.6751 22.9235 16.6751 22.6977C16.6751 22.4719 16.6156 22.2501 16.5026 22.0547C16.3896 21.8592 16.227 21.697 16.0314 21.5844L9.51759 17.8344C9.36526 17.7466 9.18437 17.7229 9.01456 17.7683L3.63415 19.2057C3.37349 19.2757 3.09573 19.2395 2.86173 19.105C2.62772 18.9705 2.45657 18.7488 2.38577 18.4884C2.35139 18.3596 2.34275 18.2253 2.36035 18.0932C2.37794 17.961 2.42143 17.8337 2.48831 17.7184C2.55519 17.6031 2.64415 17.5021 2.7501 17.4213C2.85606 17.3404 2.97692 17.2812 3.10577 17.2472L5.23433 16.6784C5.36139 16.6444 5.47552 16.5735 5.56226 16.4747C5.649 16.3758 5.70446 16.2534 5.7216 16.123C5.73874 15.9927 5.7168 15.8601 5.65856 15.7422C5.60032 15.6243 5.50839 15.5263 5.39442 15.4607L1.83755 13.4129C1.72201 13.3467 1.62068 13.2583 1.53937 13.1528C1.45807 13.0473 1.3984 12.9268 1.36378 12.7982C1.32916 12.6696 1.32027 12.5355 1.33763 12.4034C1.35498 12.2714 1.39824 12.1441 1.46492 12.0288C1.60092 11.7954 1.82376 11.6253 2.08475 11.5558C2.34574 11.4862 2.62366 11.5227 2.8578 11.6574L6.41459 13.7051C6.52845 13.7706 6.65921 13.801 6.79032 13.7923C6.92143 13.7835 7.04701 13.7361 7.15118 13.6561C7.25536 13.576 7.33344 13.4668 7.37558 13.3423C7.41771 13.2179 7.42199 13.0837 7.38788 12.9568L6.81751 10.8343C6.78314 10.7055 6.7745 10.5712 6.79209 10.4391C6.80969 10.307 6.85317 10.1796 6.92005 10.0643C6.98693 9.94902 7.07589 9.84805 7.18184 9.76719C7.2878 9.68633 7.40866 9.62715 7.53752 9.59306C7.79818 9.52307 8.07597 9.55927 8.30999 9.69373C8.54402 9.8282 8.71518 10.05 8.78598 10.3104L10.2276 15.6754C10.2503 15.7597 10.2893 15.8387 10.3425 15.9079C10.3958 15.9772 10.4621 16.0352 10.5378 16.0788L12.745 17.3495C12.8977 17.4374 13.0791 17.4611 13.2493 17.4153C13.4195 17.3694 13.5645 17.2579 13.6524 17.1052C13.7403 16.9524 13.764 16.771 13.7182 16.6009C13.6724 16.4307 13.5608 16.2857 13.4081 16.1978L11.4396 15.0645L10.0694 9.96551C9.94819 9.51755 9.69707 9.11549 9.34769 8.81006C8.9983 8.50464 8.56629 8.30952 8.10615 8.24931C7.646 8.18911 7.17834 8.26652 6.76213 8.47178C6.34593 8.67704 5.99983 9.00096 5.76749 9.40267C5.61296 9.66861 5.51276 9.96257 5.4727 10.2675C5.43264 10.5725 5.45353 10.8823 5.53414 11.1792L5.68847 11.7536L3.52084 10.5057C2.98161 10.196 2.34175 10.1124 1.74106 10.273C1.14036 10.4337 0.627663 10.8255 0.314971 11.363C0.160703 11.6295 0.0605552 11.9239 0.020268 12.2292C-0.0200193 12.5345 0.000346319 12.8448 0.0801972 13.1422C0.160048 13.4396 0.297814 13.7184 0.485599 13.9625C0.673383 14.2066 0.907493 14.4112 1.17451 14.5646L3.33727 15.8097L2.76283 15.9632C2.46312 16.0407 2.18174 16.1768 1.93492 16.3636C1.6881 16.5504 1.48074 16.7843 1.32482 17.0517C1.1689 17.3191 1.0675 17.6147 1.02649 17.9215C0.985471 18.2284 1.00565 18.5403 1.08586 18.8392C1.16607 19.1382 1.30472 19.4183 1.49381 19.6634C1.68289 19.9085 1.91865 20.1137 2.18749 20.2671C2.45632 20.4206 2.7529 20.5193 3.06008 20.5574C3.36726 20.5956 3.67896 20.5726 3.97718 20.4896L9.09243 19.123L15.3016 22.6976L9.09234 26.2724L3.97718 24.9057C3.37634 24.7454 2.73648 24.8297 2.19767 25.1402C1.65886 25.4506 1.265 25.9619 1.10231 26.5621C1.0226 26.8596 1.00233 27.1698 1.04266 27.4751C1.08299 27.7804 1.18312 28.0748 1.33732 28.3414C1.49153 28.6079 1.69678 28.8415 1.94134 29.0286C2.1859 29.2158 2.46496 29.3529 2.76256 29.4321L3.33727 29.5856L1.17442 30.8307C0.907398 30.9842 0.673279 31.1888 0.485485 31.4329C0.297692 31.677 0.159917 31.9557 0.0800576 32.2531C0.000198351 32.5506 -0.0201747 32.8608 0.0201061 33.1661C0.0603869 33.4715 0.16053 33.7658 0.314794 34.0324C0.627468 34.5699 1.14019 34.9618 1.74092 35.1224C2.34165 35.283 2.98154 35.1993 3.52075 34.8896L5.68856 33.6417L5.53423 34.2162C5.45451 34.5137 5.43424 34.8239 5.47456 35.1292C5.51489 35.4346 5.61503 35.7289 5.76924 35.9955C5.92346 36.2621 6.12873 36.4956 6.3733 36.6828C6.61788 36.8699 6.89695 37.007 7.19457 37.0862C7.7954 37.2464 8.4352 37.162 8.97398 36.8516C9.51276 36.5412 9.90665 36.03 10.0694 35.4298L11.4396 30.3307L17.6524 26.7542V33.904L13.9089 37.6368C13.6782 37.8667 13.4981 38.1422 13.38 38.4456C13.2618 38.7491 13.2084 39.0739 13.223 39.3993C13.2376 39.7246 13.3199 40.0433 13.4647 40.335C13.6095 40.6267 13.8136 40.8849 14.064 41.0932C14.9854 41.8638 16.3874 41.7896 17.2556 40.9238L17.6524 40.5282V43.0226C17.6524 43.6453 17.8997 44.2424 18.34 44.6827C18.7803 45.123 19.3775 45.3704 20.0001 45.3704C20.6228 45.3704 21.2199 45.123 21.6602 44.6827C22.1005 44.2424 22.3479 43.6453 22.3479 43.0226V40.5281L22.7725 40.9516C22.9898 41.1713 23.2483 41.3459 23.5332 41.4654C23.8182 41.5848 24.1239 41.6468 24.4329 41.6478C24.7419 41.6487 25.048 41.5886 25.3337 41.4709C25.6194 41.3532 25.879 41.1802 26.0976 40.9618C26.3162 40.7435 26.4895 40.4841 26.6076 40.1985C26.7256 39.913 26.7861 39.6069 26.7855 39.298C26.7849 38.989 26.7233 38.6832 26.6041 38.3981C26.485 38.113 26.3107 37.8542 26.0912 37.6367L22.3478 33.9039ZM38.8256 30.8307L36.6627 29.5855L37.2373 29.432C37.5364 29.354 37.8171 29.2176 38.0632 29.0306C38.3094 28.8437 38.5161 28.6099 38.6715 28.3427C38.8269 28.0755 38.9279 27.7802 38.9687 27.4738C39.0095 27.1674 38.9892 26.8559 38.9091 26.5574C38.829 26.2588 38.6907 25.9791 38.502 25.7342C38.3133 25.4894 38.0781 25.2843 37.8098 25.1308C37.5415 24.9772 37.2455 24.8783 36.9389 24.8396C36.6322 24.801 36.3209 24.8234 36.0229 24.9056L30.9077 26.2724L24.6985 22.6976L30.9077 19.123L36.0228 20.4896C36.6236 20.6498 37.2635 20.5654 37.8022 20.255C38.341 19.9446 38.7349 19.4334 38.8977 18.8333C38.9774 18.5358 38.9977 18.2255 38.9573 17.9202C38.917 17.6149 38.8169 17.3205 38.6626 17.0539C38.5084 16.7873 38.3031 16.5538 38.0586 16.3666C37.814 16.1795 37.5349 16.0424 37.2373 15.9632L36.6628 15.8097L38.8256 14.5646C39.0926 14.4112 39.3267 14.2066 39.5145 13.9625C39.7023 13.7184 39.84 13.4396 39.9199 13.1422C39.9997 12.8448 40.0201 12.5345 39.9798 12.2292C39.9395 11.9239 39.8394 11.6295 39.6851 11.363C39.3725 10.8255 38.8598 10.4336 38.2591 10.273C37.6583 10.1123 37.0185 10.196 36.4793 10.5057L34.3115 11.7536L34.4659 11.1792C34.5456 10.8817 34.5659 10.5714 34.5255 10.2661C34.4852 9.96074 34.3851 9.66636 34.2309 9.39978C34.0766 9.13319 33.8713 8.89964 33.6268 8.71248C33.3822 8.52533 33.1031 8.38824 32.8054 8.30907C32.2046 8.14897 31.5648 8.23336 31.026 8.54379C30.4873 8.85422 30.0934 9.36541 29.9306 9.96551L28.5604 15.0645L22.3477 18.6412V11.4914L26.0911 7.75863C26.3218 7.52878 26.5019 7.2533 26.6201 6.94983C26.7382 6.64635 26.7917 6.32155 26.7771 5.99622C26.7625 5.67089 26.6801 5.35219 26.5353 5.06051C26.3905 4.76883 26.1864 4.51059 25.936 4.30231C25.0146 3.53154 23.6126 3.60596 22.7445 4.47171L22.3478 4.86719V2.37265C22.3478 1.74999 22.1004 1.15283 21.6602 0.71254C21.2199 0.272253 20.6227 0.0249023 20 0.0249023C19.3774 0.0249023 18.7802 0.272253 18.3399 0.71254C17.8997 1.15283 17.6523 1.74999 17.6523 2.37265V4.86719L17.2555 4.47162C16.3873 3.60579 14.9853 3.53137 14.0639 4.30222C13.8136 4.5105 13.6094 4.76873 13.4646 5.06041C13.3198 5.35208 13.2375 5.67077 13.2229 5.99609C13.2083 6.32141 13.2618 6.6462 13.3799 6.94966C13.498 7.25313 13.6782 7.52861 13.9088 7.75846L17.6523 11.4914V18.6413L15.7836 17.5655C15.6309 17.4775 15.4495 17.4539 15.2793 17.4997C15.1091 17.5455 14.9641 17.6571 14.8762 17.8098C14.7883 17.9625 14.7646 18.1439 14.8105 18.3141C14.8563 18.4843 14.9678 18.6293 15.1205 18.7172L17.0557 19.8313C17.251 19.9437 17.4725 20.0028 17.6978 20.0026C17.9232 20.0023 18.1445 19.9428 18.3396 19.83C18.5347 19.7172 18.6967 19.5551 18.8093 19.3599C18.9219 19.1647 18.9812 18.9433 18.9812 18.7179V11.2156C18.9812 11.1282 18.964 11.0416 18.9305 10.9609C18.8969 10.8802 18.8478 10.8069 18.786 10.7451L14.8471 6.8175C14.7471 6.71799 14.6691 6.59868 14.618 6.46722C14.5669 6.33576 14.5439 6.19506 14.5504 6.05418C14.557 5.9133 14.5929 5.77534 14.6559 5.64917C14.719 5.523 14.8077 5.41142 14.9164 5.32159C15.1199 5.16101 15.3756 5.08145 15.6342 5.09827C15.8929 5.11509 16.1362 5.22709 16.3171 5.41266L17.8476 6.93861C17.9406 7.03135 18.059 7.09445 18.1878 7.11994C18.3166 7.14543 18.4501 7.13217 18.5714 7.08183C18.6927 7.03149 18.7964 6.94634 18.8693 6.83712C18.9423 6.72789 18.9812 6.59951 18.9812 6.46817V2.37265C18.9812 2.10243 19.0886 1.84329 19.2796 1.65222C19.4707 1.46115 19.7298 1.35381 20 1.35381C20.2703 1.35381 20.5294 1.46115 20.7205 1.65222C20.9115 1.84329 21.0189 2.10243 21.0189 2.37265V6.46808C21.0189 6.59942 21.0578 6.72781 21.1308 6.83703C21.2037 6.94625 21.3074 7.03141 21.4287 7.08174C21.55 7.13208 21.6835 7.14534 21.8123 7.11985C21.9411 7.09436 22.0595 7.03126 22.1525 6.93852L23.6829 5.41257C23.8639 5.22703 24.1071 5.11506 24.3658 5.09824C24.6244 5.08142 24.8801 5.16095 25.0836 5.3215C25.1923 5.41134 25.281 5.52293 25.3441 5.64911C25.4071 5.77529 25.443 5.91326 25.4496 6.05415C25.4561 6.19505 25.4331 6.33575 25.382 6.46722C25.3309 6.59868 25.2528 6.718 25.1529 6.8175L21.2141 10.745C21.1522 10.8067 21.1031 10.88 21.0696 10.9607C21.0361 11.0415 21.0189 11.128 21.0189 11.2154V18.7178C21.0189 18.9432 21.0782 19.1646 21.1908 19.3598C21.3034 19.555 21.4654 19.7171 21.6605 19.8299C21.8556 19.9427 22.0769 20.0022 22.3023 20.0025C22.5276 20.0027 22.7491 19.9436 22.9444 19.8312L29.4622 16.0788C29.5379 16.0352 29.6043 15.9772 29.6575 15.908C29.7107 15.8387 29.7498 15.7597 29.7725 15.6754L31.2141 10.3104C31.2671 10.1162 31.3763 9.942 31.5281 9.80972C31.6798 9.67744 31.8673 9.59298 32.0669 9.56698C32.2665 9.54097 32.4694 9.57458 32.6499 9.66358C32.8305 9.75257 32.9807 9.89298 33.0817 10.0671C33.1484 10.1819 33.1917 10.3089 33.2091 10.4406C33.2264 10.5723 33.2174 10.7061 33.1826 10.8343L32.6122 12.9568C32.5781 13.0837 32.5824 13.2179 32.6245 13.3423C32.6666 13.4668 32.7447 13.576 32.8489 13.6561C32.9531 13.7361 33.0787 13.7835 33.2098 13.7923C33.3409 13.801 33.4716 13.7706 33.5855 13.7051L37.1423 11.6574C37.3764 11.5228 37.6543 11.4862 37.9153 11.5558C38.1763 11.6254 38.3991 11.7954 38.5352 12.0288C38.6018 12.1441 38.6451 12.2714 38.6625 12.4034C38.6798 12.5355 38.6709 12.6696 38.6363 12.7982C38.6017 12.9268 38.542 13.0473 38.4607 13.1528C38.3794 13.2583 38.2781 13.3467 38.1625 13.4129L34.6057 15.4607C34.4917 15.5263 34.3997 15.6243 34.3415 15.7422C34.2832 15.8601 34.2612 15.9927 34.2784 16.1231C34.2955 16.2535 34.351 16.3759 34.4378 16.4748C34.5245 16.5736 34.6387 16.6445 34.7658 16.6785L36.8943 17.2472C37.0247 17.2802 37.1472 17.3389 37.2547 17.4197C37.3622 17.5006 37.4526 17.602 37.5205 17.7181C37.5885 17.8342 37.6326 17.9626 37.6505 18.0959C37.6683 18.2293 37.6594 18.3648 37.6244 18.4947C37.5894 18.6245 37.5289 18.7461 37.4464 18.8524C37.3639 18.9587 37.2611 19.0475 37.144 19.1136C37.0269 19.1798 36.8978 19.222 36.7642 19.2378C36.6307 19.2536 36.4953 19.2427 36.3659 19.2057L30.9856 17.7683C30.8158 17.7228 30.6348 17.7466 30.4825 17.8344L23.9687 21.5844C23.773 21.697 23.6105 21.8592 23.4975 22.0547C23.3845 22.2501 23.325 22.4719 23.325 22.6977C23.325 22.9235 23.3845 23.1452 23.4975 23.3407C23.6105 23.5361 23.773 23.6984 23.9687 23.811L30.4825 27.561C30.6348 27.6487 30.8157 27.6724 30.9855 27.6271L36.3659 26.1895C36.6266 26.1196 36.9043 26.1558 37.1383 26.2902C37.3723 26.4247 37.5435 26.6464 37.6143 26.9067C37.6487 27.0355 37.6574 27.1698 37.6398 27.302C37.6222 27.4341 37.5787 27.5615 37.5118 27.6768C37.4449 27.7921 37.356 27.8931 37.25 27.974C37.144 28.0549 37.0231 28.114 36.8942 28.1481L34.7657 28.7169C34.6386 28.7508 34.5244 28.8217 34.4377 28.9206C34.3509 29.0195 34.2955 29.1419 34.2784 29.2723C34.2612 29.4027 34.2832 29.5353 34.3414 29.6532C34.3997 29.7711 34.4917 29.8691 34.6057 29.9347L38.1625 31.9824C38.2781 32.0486 38.3794 32.137 38.4607 32.2424C38.542 32.3479 38.6017 32.4684 38.6363 32.597C38.6709 32.7256 38.6798 32.8598 38.6624 32.9918C38.6451 33.1238 38.6018 33.2511 38.5351 33.3664C38.399 33.5997 38.1762 33.7696 37.9153 33.8392C37.6544 33.9088 37.3765 33.8723 37.1424 33.7378L33.5855 31.6902C33.4716 31.6246 33.3409 31.5943 33.2098 31.603C33.0787 31.6117 32.9531 31.6591 32.8489 31.7392C32.7447 31.8193 32.6666 31.9285 32.6245 32.0529C32.5824 32.1774 32.5781 32.3116 32.6122 32.4385L33.1826 34.5609C33.217 34.6897 33.2256 34.824 33.208 34.9562C33.1905 35.0883 33.147 35.2157 33.0801 35.331C33.0132 35.4463 32.9242 35.5472 32.8182 35.6281C32.7123 35.709 32.5914 35.7681 32.4625 35.8022C32.2019 35.8721 31.9242 35.8358 31.6902 35.7014C31.4562 35.567 31.2851 35.3453 31.2142 35.0849L29.7725 29.7199C29.7498 29.6355 29.7108 29.5565 29.6576 29.4873C29.6043 29.4181 29.538 29.36 29.4623 29.3164L22.9445 25.5642C22.7492 25.4517 22.5277 25.3926 22.3023 25.3928C22.077 25.393 21.8556 25.4525 21.6605 25.5653C21.4654 25.6781 21.3034 25.8403 21.1908 26.0355C21.0782 26.2307 21.0189 26.4521 21.0189 26.6775V29.7196C21.0189 29.8958 21.0889 30.0648 21.2135 30.1894C21.3381 30.3141 21.5071 30.3841 21.6833 30.3841C21.8596 30.3841 22.0286 30.3141 22.1532 30.1894C22.2778 30.0648 22.3478 29.8958 22.3478 29.7196V26.7541L28.5605 30.3307L29.9307 35.4298C30.0519 35.8777 30.303 36.2798 30.6524 36.5852C31.0018 36.8907 31.4338 37.0858 31.8939 37.146C32.3541 37.2062 32.8217 37.1288 33.2379 36.9236C33.6541 36.7183 34.0003 36.3944 34.2326 35.9927C34.3871 35.7267 34.4873 35.4328 34.5274 35.1278C34.5675 34.8228 34.5466 34.5129 34.466 34.2161L34.3116 33.6416L36.4793 34.8894C37.0184 35.1992 37.6583 35.2829 38.259 35.1223C38.8597 34.9617 39.3725 34.5698 39.6851 34.0323C39.8394 33.7657 39.9396 33.4714 39.9799 33.1661C40.0202 32.8607 39.9998 32.5505 39.92 32.253C39.8401 31.9556 39.7023 31.6769 39.5145 31.4328C39.3267 31.1887 39.0926 30.9841 38.8256 30.8307Z" fill="black"/>
</svg>
