<svg width="40" height="35" viewBox="0 0 40 35" fill="none" xmlns="http://www.w3.org/2000/svg">
<path d="M25.8333 6.66667C27.6667 6.66667 29.1667 5.16667 29.1667 3.33333C29.1667 1.5 27.6667 0 25.8333 0C24 0 22.5 1.5 22.5 3.33333C22.5 5.16667 24 6.66667 25.8333 6.66667ZM8.33333 17.5C3.66667 17.5 0 21.1667 0 25.8333C0 30.5 3.66667 34.1667 8.33333 34.1667C13 34.1667 16.6667 30.5 16.6667 25.8333C16.6667 21.1667 13 17.5 8.33333 17.5ZM8.33333 31.6667C5.16667 31.6667 2.5 29 2.5 25.8333C2.5 22.6667 5.16667 20 8.33333 20C11.5 20 14.1667 22.6667 14.1667 25.8333C14.1667 29 11.5 31.6667 8.33333 31.6667ZM18 15L22 11L23.3333 12.3333C25.1 14.1 27.3 15.3 29.9333 15.7C30.9333 15.85 31.8333 15.05 31.8333 14.0333C31.8333 13.2167 31.2167 12.5167 30.4167 12.3833C28.5667 12.0833 27.05 11.2 25.8333 10L22.6667 6.83333C21.8333 6.16667 21 5.83333 20 5.83333C19 5.83333 18.1667 6.16667 17.6667 6.83333L13 11.5C12.3333 12.1667 12 13 12 13.8333C12 14.8333 12.3333 15.6667 13 16.1667L18.3333 20.8333V27.5C18.3333 28.4167 19.0833 29.1667 20 29.1667C20.9167 29.1667 21.6667 28.4167 21.6667 27.5V20.1667C21.6667 19.3 21.3333 18.4833 20.75 17.8667L18 15ZM31.6667 17.5C27 17.5 23.3333 21.1667 23.3333 25.8333C23.3333 30.5 27 34.1667 31.6667 34.1667C36.3333 34.1667 40 30.5 40 25.8333C40 21.1667 36.3333 17.5 31.6667 17.5ZM31.6667 31.6667C28.5 31.6667 25.8333 29 25.8333 25.8333C25.8333 22.6667 28.5 20 31.6667 20C34.8333 20 37.5 22.6667 37.5 25.8333C37.5 29 34.8333 31.6667 31.6667 31.6667Z" fill="black"/>
</svg>
