<svg width="40" height="30" viewBox="0 0 40 30" fill="none" xmlns="http://www.w3.org/2000/svg">
<path d="M1.99708 28.811V25.8154H6.17098C6.58038 26.9737 7.67877 27.8125 8.98686 27.8125C10.6344 27.8125 11.9825 26.4644 11.9825 24.8168C11.9825 24.3176 11.8527 23.8582 11.633 23.4389L18.0736 16.499L31.3242 20.603C31.424 20.633 31.5239 20.6429 31.6238 20.6429C31.7835 20.6429 31.9433 20.603 32.0931 20.5231C32.3327 20.4033 32.5025 20.1836 32.5824 19.934L32.8819 18.9754L34.7891 19.5645C34.9888 19.6244 35.1786 19.6544 35.3783 19.6544C36.227 19.6544 37.0259 19.1052 37.2855 18.2465L39.0629 12.5248C39.2127 12.0355 38.963 11.5263 38.5037 11.3266L39.7219 10.0584C39.9616 9.80879 40.0514 9.44932 39.9715 9.1198C39.8817 8.7803 39.632 8.52068 39.3025 8.42082L13.5202 0.46246C13.021 0.302694 12.4718 0.35262 12.0024 0.602255C11.5331 0.85189 11.1836 1.27128 11.0239 1.78053L8.0682 11.3166C7.73868 12.3651 8.33781 13.4934 9.38627 13.8129L15.9567 15.85L10.1751 22.0808C9.80566 21.9211 9.40624 21.8312 8.98686 21.8312C7.68876 21.8312 6.59036 22.67 6.17098 23.8283H1.99708V20.8327C1.99708 20.2835 1.54774 19.8341 0.99854 19.8341C0.449343 19.8341 0 20.2835 0 20.8327V28.821C0 29.3702 0.449343 29.8195 0.99854 29.8195C1.54774 29.8195 1.99708 29.3702 1.99708 28.811ZM35.3683 17.6773L33.4611 17.0881L33.6907 16.3592L36.7762 13.1339L35.3683 17.6773ZM9.97541 11.9057L12.9311 2.36967L37.1357 9.8687L32.0731 15.151C31.9633 15.2608 31.8834 15.4006 31.8434 15.5504L30.9547 18.4162L9.97541 11.9057ZM8.98686 23.8183C9.53605 23.8183 9.9854 24.2676 9.9854 24.8168C9.9854 25.366 9.53605 25.8154 8.98686 25.8154C8.43766 25.8154 7.98832 25.366 7.98832 24.8168C7.98832 24.2676 8.43766 23.8183 8.98686 23.8183Z" fill="black"/>
</svg>
