<svg width="40" height="41" viewBox="0 0 40 41" fill="none" xmlns="http://www.w3.org/2000/svg">
<path d="M19.9943 0.166748C8.95714 0.166748 0 9.13532 0 20.1725C0 31.2096 8.95714 40.1667 19.9943 40.1667C31.0314 40.1667 40 31.2096 40 20.1725C40 9.13532 31.0314 0.166748 19.9943 0.166748ZM19.9943 1.60103C30.26 1.60103 38.5657 9.90675 38.5657 20.1725C38.5657 30.4382 30.26 38.7439 19.9943 38.7439C9.72857 38.7439 1.42286 30.4382 1.42286 20.1725C1.42286 9.90675 9.72857 1.60103 19.9943 1.60103ZM13.3286 10.1639C13.1861 10.1636 13.0467 10.206 12.9285 10.2855C12.8102 10.365 12.7185 10.4781 12.665 10.6102C12.6115 10.7424 12.5988 10.8874 12.6285 11.0268C12.6581 11.1662 12.7288 11.2936 12.8314 11.3925L16.3643 14.9267L15.3543 15.9339L11.8271 12.4096C11.7609 12.3413 11.6816 12.2868 11.5941 12.2495C11.5065 12.2123 11.4123 12.1928 11.3171 12.1925C11.1744 12.1916 11.0346 12.2335 10.9159 12.3129C10.7972 12.3922 10.705 12.5053 10.6512 12.6375C10.5974 12.7697 10.5845 12.915 10.614 13.0547C10.6436 13.1944 10.7144 13.322 10.8171 13.421L14.3443 16.9439L13.3343 17.9539L9.80143 14.4225C9.73554 14.3542 9.65672 14.2998 9.56957 14.2624C9.48243 14.225 9.3887 14.2053 9.29386 14.2044C9.19902 14.2036 9.10496 14.2217 9.01718 14.2576C8.92939 14.2935 8.84964 14.3465 8.78257 14.4136C8.71551 14.4807 8.66247 14.5604 8.62656 14.6482C8.59064 14.736 8.57257 14.8301 8.57339 14.9249C8.57422 15.0197 8.59392 15.1135 8.63136 15.2006C8.66879 15.2878 8.72321 15.3666 8.79143 15.4325L12.3243 18.9639C12.5938 19.2286 12.9565 19.3769 13.3343 19.3769C13.7121 19.3769 14.0748 19.2286 14.3443 18.9639H14.35L16.71 21.3253L9.01571 28.2025C9.0099 28.2081 9.00419 28.2138 8.99857 28.2196C8.86397 28.3503 8.75701 28.5068 8.68406 28.6796C8.61112 28.8525 8.57366 29.0383 8.57393 29.2259C8.57419 29.4136 8.61218 29.5992 8.68562 29.7719C8.75906 29.9446 8.86645 30.1007 9.00143 30.231L10.0329 31.2082C10.3078 31.4586 10.6683 31.594 11.0401 31.5865C11.4119 31.5791 11.7667 31.4294 12.0314 31.1682L19.3243 23.9425L26.7671 31.3853C26.8335 31.4518 26.9123 31.5046 26.9991 31.5406C27.0859 31.5766 27.1789 31.5952 27.2729 31.5952C27.3668 31.5952 27.4598 31.5766 27.5466 31.5406C27.6334 31.5046 27.7122 31.4518 27.7786 31.3853L29.7914 29.3739C29.9253 29.2399 30.0006 29.0583 30.0006 28.8689C30.0006 28.6795 29.9253 28.4978 29.7914 28.3639L22.31 20.8639L31.23 11.4953C31.3194 11.4018 31.3817 11.2858 31.4103 11.1596C31.4389 11.0335 31.4327 10.9019 31.3924 10.779C31.352 10.6561 31.2791 10.5464 31.1813 10.4618C31.0835 10.3771 30.9646 10.3205 30.8371 10.2982C27.5743 9.73389 24.9943 11.0339 22.7871 13.351L18.8929 17.441L17.3829 15.9267C17.6431 15.6564 17.7878 15.2953 17.7861 14.92C17.7845 14.5448 17.6368 14.1849 17.3743 13.9167L13.8429 10.3839C13.7761 10.315 13.6962 10.2603 13.6078 10.223C13.5194 10.1857 13.4245 10.1666 13.3286 10.1667V10.1639ZM28.9114 11.8582L20.5829 20.601L19.1429 19.2439L23.82 14.3325C25.3814 12.6925 27.0143 11.9896 28.9114 11.8582ZM16.3757 16.9325L17.9071 18.4682L17.6143 18.7767C17.5498 18.8449 17.4994 18.9251 17.466 19.0128C17.4325 19.1005 17.4167 19.1939 17.4193 19.2877C17.422 19.3815 17.4431 19.4738 17.4814 19.5594C17.5198 19.6451 17.5746 19.7223 17.6429 19.7867L18.0214 20.1467L17.7757 20.3682L15.36 17.951L15.7529 17.5553C15.8381 17.5003 15.9107 17.4277 15.9657 17.3425L16.3757 16.9325ZM19.0657 21.1353L19.6043 21.6453L11.0271 30.1496C11.0262 30.1496 11.0252 30.1496 11.0243 30.1496C11.0043 30.1682 11.0129 30.1639 11.0129 30.1639L10.0171 29.2239L19.0657 21.1353ZM21.3557 21.9239L28.2757 28.8639L27.2743 29.8653L20.34 22.9325L21.3557 21.9239Z" fill="black"/>
</svg>
