<svg width="58" height="59" viewBox="0 0 58 59" fill="none" xmlns="http://www.w3.org/2000/svg">
<path d="M32.7516 6.87337L30.8964 6.60377L30.0667 4.92258C29.9684 4.72358 29.8164 4.55599 29.6279 4.43884C29.4394 4.32169 29.2219 4.25961 29 4.25961C28.778 4.25962 28.5605 4.32171 28.372 4.43887C28.1835 4.55603 28.0316 4.72358 27.9333 4.92259L27.1036 6.60378L25.2484 6.87332C25.0288 6.90523 24.8225 6.99795 24.6528 7.14101C24.4831 7.28407 24.3568 7.47175 24.2882 7.68283C24.2196 7.89392 24.2114 8.11999 24.2646 8.33547C24.3178 8.55096 24.4302 8.74727 24.5891 8.9022L25.9317 10.2108L25.6148 12.0584C25.5767 12.2773 25.6007 12.5025 25.6841 12.7085C25.7675 12.9144 25.907 13.0928 26.0868 13.2235C26.2665 13.3541 26.4793 13.4317 26.701 13.4474C26.9226 13.4631 27.1442 13.4164 27.3406 13.3125L29 12.4401L30.6594 13.3125C30.8558 13.4158 31.0773 13.462 31.2986 13.446C31.52 13.43 31.7325 13.3524 31.912 13.2219C32.0916 13.0915 32.231 12.9134 32.3147 12.7078C32.3983 12.5022 32.4227 12.2773 32.3852 12.0586L32.0683 10.2108L33.411 8.90214C33.5699 8.7472 33.6823 8.55089 33.7354 8.33541C33.7886 8.11993 33.7804 7.89388 33.7118 7.68281C33.6432 7.47174 33.5169 7.28407 33.3472 7.14103C33.1775 6.99799 32.9712 6.90527 32.7516 6.87337ZM30.6901 9.1812C30.5521 9.31579 30.4488 9.48194 30.3893 9.66533C30.3297 9.84871 30.3157 10.0438 30.3483 10.2339L30.5358 11.3278L29.5536 10.8113C29.3829 10.7216 29.1929 10.6747 29 10.6747C28.8071 10.6747 28.6171 10.7216 28.4464 10.8113L27.4642 11.3278L27.6517 10.234C27.6843 10.0439 27.6703 9.84874 27.6107 9.66531C27.5511 9.48188 27.4478 9.3157 27.3097 9.18109L26.5149 8.40637L27.6133 8.24679C27.8041 8.21909 27.9854 8.14539 28.1414 8.03204C28.2974 7.91869 28.4235 7.76909 28.5088 7.59614L29 6.60084L29.4911 7.59587C29.5764 7.76889 29.7025 7.91856 29.8585 8.03196C30.0146 8.14536 30.1959 8.21909 30.3868 8.24679L31.4851 8.40637L30.6901 9.1812ZM20.7314 6.87337L18.8762 6.60377L18.0465 4.92258C17.9482 4.72358 17.7962 4.55598 17.6077 4.43883C17.4192 4.32168 17.2017 4.2596 16.9798 4.25961C16.7578 4.25962 16.5403 4.32171 16.3518 4.43887C16.1633 4.55603 16.0114 4.72358 15.9131 4.92259L15.0834 6.60378L13.2282 6.87332C13.0086 6.90523 12.8023 6.99796 12.6326 7.14102C12.4629 7.28408 12.3366 7.47177 12.268 7.68286C12.1994 7.89395 12.1913 8.12001 12.2445 8.3355C12.2977 8.55098 12.4101 8.74728 12.569 8.9022L13.9115 10.2107L13.5946 12.0584C13.5565 12.2773 13.5805 12.5025 13.6639 12.7085C13.7473 12.9144 13.8868 13.0928 14.0666 13.2234C14.2463 13.3541 14.4591 13.4317 14.6807 13.4474C14.9024 13.4631 15.124 13.4164 15.3204 13.3125L16.9798 12.4401L18.6392 13.3125C18.8356 13.4158 19.0571 13.462 19.2784 13.446C19.4998 13.43 19.7123 13.3524 19.8918 13.222C20.0714 13.0915 20.2108 12.9134 20.2945 12.7078C20.3781 12.5022 20.4025 12.2773 20.365 12.0586L20.0481 10.2109L21.3908 8.90214C21.5497 8.7472 21.6621 8.55089 21.7152 8.33541C21.7684 8.11993 21.7602 7.89387 21.6916 7.68281C21.623 7.47174 21.4967 7.28407 21.327 7.14103C21.1573 6.99798 20.951 6.90527 20.7314 6.87337ZM18.6701 9.1812C18.532 9.31579 18.4287 9.48194 18.3691 9.66532C18.3096 9.8487 18.2955 10.0438 18.3281 10.2339L18.5156 11.3278L17.5334 10.8113C17.3627 10.7215 17.1727 10.6746 16.9799 10.6746C16.787 10.6746 16.597 10.7215 16.4263 10.8113L15.444 11.3278L15.6315 10.234C15.6641 10.0439 15.6501 9.84874 15.5905 9.66531C15.5309 9.48189 15.4276 9.3157 15.2895 9.18109L14.4948 8.40637L15.5931 8.24679C15.7839 8.21909 15.9652 8.14539 16.1212 8.03204C16.2772 7.91869 16.4033 7.76909 16.4886 7.59614L16.9798 6.60084L17.4712 7.59653C17.5566 7.76936 17.6827 7.91885 17.8387 8.03213C17.9947 8.14541 18.1758 8.21907 18.3666 8.24679L19.4649 8.40643L18.6701 9.1812ZM42.1973 53.5837H49.334C49.8295 53.5832 50.3046 53.386 50.655 53.0356C51.0054 52.6852 51.2025 52.2101 51.2031 51.7146V43.8982C51.2025 43.4026 51.0054 42.9276 50.655 42.5771C50.3046 42.2267 49.8295 42.0296 49.334 42.0291H42.1973C41.7017 42.0296 41.2266 42.2267 40.8762 42.5771C40.5258 42.9276 40.3287 43.4026 40.3281 43.8982V51.7146C40.3287 52.2101 40.5258 52.6852 40.8762 53.0356C41.2266 53.386 41.7017 53.5832 42.1973 53.5837ZM46.6152 43.7283H49.334C49.379 43.7283 49.4222 43.7462 49.4541 43.7781C49.4859 43.81 49.5039 43.8531 49.5039 43.8982V46.9568H46.6152V43.7283ZM46.6152 48.656H49.5039V51.7146C49.5039 51.7597 49.4859 51.8028 49.4541 51.8347C49.4222 51.8666 49.379 51.8845 49.334 51.8845H46.6152V48.656ZM42.0273 43.8982C42.0274 43.8531 42.0453 43.81 42.0772 43.7781C42.109 43.7462 42.1522 43.7283 42.1973 43.7283H44.916V46.9568H42.0273V43.8982ZM42.0273 48.656H44.916V51.8845H42.1973C42.1522 51.8845 42.109 51.8666 42.0772 51.8347C42.0453 51.8028 42.0274 51.7597 42.0273 51.7146V48.656ZM56.3574 23.6775C56.7929 23.677 57.2104 23.5038 57.5183 23.1958C57.8263 22.8879 57.9995 22.4704 58 22.0349V20.2224C57.9995 19.7869 57.8263 19.3694 57.5183 19.0615C57.2104 18.7536 56.7929 18.5803 56.3574 18.5798H45.9134V16.8806H47.0684C47.7441 16.8799 48.392 16.6111 48.8698 16.1332C49.3476 15.6554 49.6164 15.0075 49.6172 14.3318V3.23022C49.6164 2.55447 49.3476 1.90661 48.8698 1.42878C48.392 0.950945 47.7441 0.682162 47.0684 0.681396L10.9316 0.681396C10.2559 0.682162 9.60802 0.950945 9.13019 1.42878C8.65236 1.90661 8.38358 2.55447 8.38281 3.23022V14.3318C8.38358 15.0075 8.65236 15.6554 9.13019 16.1332C9.60802 16.6111 10.2559 16.8799 10.9316 16.8806H12.0866V18.5798H1.64258C1.20709 18.5803 0.789587 18.7536 0.481653 19.0615C0.173718 19.3694 0.000500395 19.7869 0 20.2224L0 22.0349C0.000500395 22.4704 0.173718 22.8879 0.481653 23.1958C0.789587 23.5038 1.20709 23.677 1.64258 23.6775H1.69922V56.9822H0.849609C0.624279 56.9822 0.408177 57.0717 0.248845 57.231C0.0895122 57.3904 0 57.6065 0 57.8318C0 58.0571 0.0895122 58.2732 0.248845 58.4326C0.408177 58.5919 0.624279 58.6814 0.849609 58.6814H57.1504C57.3757 58.6814 57.5918 58.5919 57.7512 58.4326C57.9105 58.2732 58 58.0571 58 57.8318C58 57.6065 57.9105 57.3904 57.7512 57.231C57.5918 57.0717 57.3757 56.9822 57.1504 56.9822H56.3008V23.6775H56.3574ZM10.9316 15.1814C10.7064 15.1812 10.4904 15.0916 10.3311 14.9323C10.1719 14.773 10.0823 14.557 10.082 14.3318V3.23022C10.0823 3.00497 10.1719 2.78901 10.3311 2.62973C10.4904 2.47045 10.7064 2.38086 10.9316 2.38062H47.0684C47.2936 2.38086 47.5096 2.47045 47.6689 2.62973C47.8281 2.78901 47.9177 3.00497 47.918 3.23022V14.3318C47.9177 14.557 47.8281 14.773 47.6689 14.9323C47.5096 15.0916 47.2936 15.1812 47.0684 15.1814H10.9316ZM44.2142 16.8806V18.5798H42.1751V16.8806H44.2142ZM40.4759 16.8806V18.5798H17.5241V16.8806H40.4759ZM15.8249 16.8806V18.5798H13.7858V16.8806H15.8249ZM34.2676 56.9822H23.7324V44.5779C23.7327 44.3526 23.8223 44.1367 23.9815 43.9774C24.1408 43.8181 24.3568 43.7285 24.582 43.7283H33.418C33.6432 43.7285 33.8592 43.8181 34.0185 43.9774C34.1777 44.1367 34.2673 44.3526 34.2676 44.5779V56.9822ZM54.6016 56.9822H35.9668V44.5779C35.966 43.9021 35.6972 43.2543 35.2194 42.7764C34.7416 42.2986 34.0937 42.0298 33.418 42.0291H24.582C23.9063 42.0298 23.2584 42.2986 22.7806 42.7764C22.3028 43.2543 22.034 43.9021 22.0332 44.5779V56.9822H3.39844V23.6775H54.6016V56.9822ZM1.69922 21.9783V20.2791H56.3008V21.9783H1.69922ZM25.4316 38.6306H32.5684C33.0639 38.63 33.539 38.4329 33.8894 38.0825C34.2398 37.7321 34.4369 37.257 34.4375 36.7615V28.9451C34.4369 28.4495 34.2398 27.9744 33.8894 27.624C33.539 27.2736 33.0639 27.0765 32.5684 27.0759H25.4316C24.9361 27.0765 24.461 27.2736 24.1106 27.624C23.7602 27.9744 23.5631 28.4495 23.5625 28.9451V36.7615C23.5631 37.257 23.7602 37.7321 24.1106 38.0825C24.461 38.4329 24.9361 38.63 25.4316 38.6306ZM29.8496 28.7751H32.5684C32.6134 28.7752 32.6566 28.7931 32.6885 28.825C32.7203 28.8568 32.7382 28.9 32.7383 28.9451V32.0037H29.8496V28.7751ZM29.8496 33.7029H32.7383V36.7615C32.7382 36.8065 32.7203 36.8497 32.6885 36.8816C32.6566 36.9134 32.6134 36.9313 32.5684 36.9314H29.8496V33.7029ZM25.2617 28.9451C25.2618 28.9 25.2797 28.8568 25.3115 28.825C25.3434 28.7931 25.3866 28.7752 25.4316 28.7751H28.1504V32.0037H25.2617V28.9451ZM25.2617 33.7029H28.1504V36.9314H25.4316C25.3866 36.9313 25.3434 36.9134 25.3115 36.8816C25.2797 36.8497 25.2618 36.8065 25.2617 36.7615V33.7029ZM8.66602 38.6306H15.8027C16.2983 38.63 16.7734 38.4329 17.1238 38.0825C17.4742 37.7321 17.6713 37.257 17.6719 36.7615V28.9451C17.6713 28.4495 17.4742 27.9744 17.1238 27.624C16.7734 27.2736 16.2983 27.0765 15.8027 27.0759H8.66602C8.17046 27.0765 7.69537 27.2736 7.34496 27.624C6.99455 27.9744 6.79744 28.4495 6.79688 28.9451V36.7615C6.79745 37.257 6.99457 37.7321 7.34497 38.0825C7.69538 38.4329 8.17047 38.63 8.66602 38.6306ZM13.084 28.7751H15.8027C15.8478 28.7752 15.891 28.7931 15.9228 28.825C15.9547 28.8568 15.9726 28.9 15.9727 28.9451V32.0037H13.084V28.7751ZM13.084 33.7029H15.9727V36.7615C15.9726 36.8065 15.9547 36.8497 15.9228 36.8816C15.891 36.9134 15.8478 36.9313 15.8027 36.9314H13.084V33.7029ZM8.49609 28.9451C8.49614 28.9 8.51406 28.8568 8.54592 28.825C8.57777 28.7931 8.62097 28.7752 8.66602 28.7751H11.3848V32.0037H8.49609V28.9451ZM8.49609 33.7029H11.3848V36.9314H8.66602C8.62097 36.9313 8.57777 36.9134 8.54592 36.8816C8.51406 36.8497 8.49614 36.8065 8.49609 36.7615V33.7029ZM42.1973 38.6306H49.334C49.8295 38.63 50.3046 38.4329 50.655 38.0825C51.0054 37.7321 51.2025 37.257 51.2031 36.7615V28.9451C51.2026 28.4495 51.0054 27.9744 50.655 27.624C50.3046 27.2736 49.8295 27.0765 49.334 27.0759H42.1973C41.7017 27.0765 41.2266 27.2736 40.8762 27.624C40.5258 27.9744 40.3287 28.4495 40.3281 28.9451V36.7615C40.3287 37.257 40.5258 37.7321 40.8762 38.0825C41.2266 38.4329 41.7017 38.63 42.1973 38.6306ZM46.6152 28.7751H49.334C49.379 28.7752 49.4222 28.7931 49.4541 28.825C49.4859 28.8568 49.5039 28.9 49.5039 28.9451V32.0037H46.6152V28.7751ZM46.6152 33.7029H49.5039V36.7615C49.5039 36.8065 49.4859 36.8497 49.4541 36.8816C49.4222 36.9134 49.379 36.9313 49.334 36.9314H46.6152V33.7029ZM42.0273 28.9451C42.0274 28.9 42.0453 28.8568 42.0772 28.825C42.109 28.7931 42.1522 28.7752 42.1973 28.7751H44.916V32.0037H42.0273V28.9451ZM42.0273 33.7029H44.916V36.9314H42.1973C42.1522 36.9313 42.109 36.9134 42.0772 36.8816C42.0453 36.8497 42.0274 36.8065 42.0273 36.7615V33.7029ZM8.66602 53.5837H15.8027C16.2983 53.5832 16.7734 53.386 17.1238 53.0356C17.4742 52.6852 17.6713 52.2101 17.6719 51.7146V43.8982C17.6713 43.4026 17.4742 42.9276 17.1238 42.5771C16.7734 42.2267 16.2983 42.0296 15.8027 42.0291H8.66602C8.17047 42.0296 7.69538 42.2267 7.34497 42.5771C6.99457 42.9276 6.79745 43.4026 6.79688 43.8982V51.7146C6.79745 52.2101 6.99457 52.6852 7.34497 53.0356C7.69538 53.386 8.17047 53.5832 8.66602 53.5837ZM13.084 43.7283H15.8027C15.8478 43.7283 15.891 43.7462 15.9228 43.7781C15.9547 43.81 15.9726 43.8531 15.9727 43.8982V46.9568H13.084V43.7283ZM13.084 48.656H15.9727V51.7146C15.9726 51.7597 15.9547 51.8028 15.9228 51.8347C15.891 51.8666 15.8478 51.8845 15.8027 51.8845H13.084V48.656ZM8.49609 43.8982C8.49614 43.8531 8.51406 43.81 8.54592 43.7781C8.57777 43.7462 8.62097 43.7283 8.66602 43.7283H11.3848V46.9568H8.49609V43.8982ZM8.49609 48.656H11.3848V51.8845H8.66602C8.62097 51.8845 8.57777 51.8666 8.54592 51.8347C8.51406 51.8028 8.49614 51.7597 8.49609 51.7146V48.656ZM44.7718 6.93001L42.9165 6.66041L42.0869 4.97922C41.9886 4.78022 41.8366 4.61263 41.6481 4.49548C41.4596 4.37833 41.2421 4.31624 41.0202 4.31625C40.7982 4.31626 40.5807 4.37835 40.3922 4.49551C40.2037 4.61267 40.0518 4.78022 39.9535 4.97923L39.1238 6.66042L37.2686 6.92996C37.049 6.96187 36.8427 7.05459 36.673 7.19765C36.5033 7.34071 36.377 7.52839 36.3084 7.73947C36.2398 7.95056 36.2316 8.17663 36.2848 8.39211C36.338 8.6076 36.4504 8.80391 36.6093 8.95884L37.9519 10.2675L37.635 12.1151C37.5969 12.334 37.6209 12.5592 37.7043 12.7651C37.7877 12.9711 37.9272 13.1495 38.107 13.2801C38.2867 13.4107 38.4995 13.4883 38.7211 13.504C38.9428 13.5198 39.1644 13.473 39.3608 13.3691L41.0202 12.4967L42.6796 13.3691C42.876 13.4724 43.0975 13.5187 43.3188 13.5027C43.5402 13.4867 43.7527 13.4091 43.9322 13.2786C44.1118 13.1481 44.2512 12.97 44.3349 12.7645C44.4185 12.5589 44.4429 12.334 44.4054 12.1152L44.0885 10.2674L45.4309 8.9589C45.5898 8.804 45.7023 8.60771 45.7555 8.39222C45.8087 8.17674 45.8006 7.95067 45.732 7.73957C45.6634 7.52847 45.5372 7.34077 45.3675 7.19771C45.1978 7.05464 44.9914 6.96191 44.7718 6.93001ZM42.7104 9.23784C42.5723 9.37243 42.469 9.53858 42.4095 9.72197C42.3499 9.90535 42.3359 10.1005 42.3685 10.2905L42.556 11.3844L41.5737 10.868C41.403 10.7782 41.213 10.7313 41.0201 10.7313C40.8273 10.7313 40.6373 10.7782 40.4666 10.868L39.4844 11.3844L39.6719 10.2906C39.7045 10.1005 39.6904 9.90537 39.6308 9.72194C39.5712 9.53852 39.4679 9.37234 39.3298 9.23773L38.5351 8.46307L39.6336 8.30343C39.8244 8.27565 40.0056 8.20191 40.1616 8.08857C40.3176 7.97523 40.4437 7.82567 40.529 7.65278L41.0202 6.65748L41.5113 7.65251C41.5966 7.82553 41.7227 7.9752 41.8788 8.0886C42.0348 8.202 42.2161 8.27573 42.407 8.30343L43.5052 8.46301L42.7104 9.23784Z" fill="white"/>
</svg>
