<svg width="30" height="41" viewBox="0 0 30 41" fill="none" xmlns="http://www.w3.org/2000/svg">
<path d="M21.6667 36.6527C21.6667 36.8737 21.7545 37.0856 21.9107 37.2419C22.067 37.3982 22.279 37.486 22.5 37.486H25.8333C26.0543 37.486 26.2663 37.3982 26.4226 37.2419C26.5789 37.0856 26.6667 36.8737 26.6667 36.6527C26.6667 36.4317 26.5789 36.2197 26.4226 36.0634C26.2663 35.9071 26.0543 35.8193 25.8333 35.8193H22.5C22.279 35.8193 22.067 35.9071 21.9107 36.0634C21.7545 36.2197 21.6667 36.4317 21.6667 36.6527ZM24.1667 4.15267C23.6722 4.15267 23.1889 4.29929 22.7777 4.574C22.3666 4.8487 22.0462 5.23915 21.857 5.69596C21.6677 6.15278 21.6182 6.65544 21.7147 7.14039C21.8112 7.62535 22.0493 8.07081 22.3989 8.42044C22.7485 8.77007 23.194 9.00817 23.6789 9.10463C24.1639 9.2011 24.6666 9.15159 25.1234 8.96237C25.5802 8.77315 25.9706 8.45272 26.2453 8.04159C26.52 7.63047 26.6667 7.14712 26.6667 6.65267C26.6667 5.98963 26.4033 5.35374 25.9344 4.8849C25.4656 4.41606 24.8297 4.15267 24.1667 4.15267ZM24.1667 7.486C24.0018 7.486 23.8407 7.43713 23.7037 7.34556C23.5667 7.25399 23.4598 7.12384 23.3968 6.97157C23.3337 6.8193 23.3172 6.65174 23.3493 6.49009C23.3815 6.32844 23.4609 6.17996 23.5774 6.06341C23.694 5.94687 23.8424 5.8675 24.0041 5.83535C24.1657 5.80319 24.3333 5.8197 24.4856 5.88277C24.6378 5.94584 24.768 6.05265 24.8596 6.18969C24.9511 6.32674 25 6.48785 25 6.65267C25 6.87368 24.9122 7.08564 24.7559 7.24192C24.5996 7.3982 24.3877 7.486 24.1667 7.486ZM15 35.8193C16.9778 35.8193 18.9112 35.2328 20.5557 34.134C22.2002 33.0352 23.4819 31.4734 24.2388 29.6462C24.9957 27.8189 25.1937 25.8082 24.8079 23.8684C24.422 21.9286 23.4696 20.1468 22.0711 18.7483C20.6725 17.3497 18.8907 16.3973 16.9509 16.0115C15.0111 15.6256 13.0004 15.8237 11.1732 16.5805C9.3459 17.3374 7.78412 18.6191 6.6853 20.2636C5.58649 21.9081 5 23.8415 5 25.8193C5 28.4715 6.05357 31.015 7.92893 32.8904C9.8043 34.7658 12.3478 35.8193 15 35.8193ZM15 17.486C16.6482 17.486 18.2593 17.9747 19.6298 18.8904C21.0002 19.8061 22.0683 21.1076 22.699 22.6303C23.3297 24.153 23.4948 25.8286 23.1732 27.4451C22.8517 29.0616 22.058 30.5465 20.8926 31.7119C19.7271 32.8773 18.2423 33.671 16.6258 33.9925C15.0092 34.3141 13.3337 34.1491 11.811 33.5183C10.2883 32.8876 8.98676 31.8195 8.07109 30.4491C7.15541 29.0787 6.66667 27.4675 6.66667 25.8193C6.66667 23.6092 7.54464 21.4896 9.10744 19.9268C10.6702 18.364 12.7899 17.486 15 17.486ZM25.8333 0.819336H4.16667C3.0616 0.819336 2.00179 1.25832 1.22039 2.03972C0.438987 2.82113 0 3.88093 0 4.986V36.6527C0 37.1998 0.107774 37.7417 0.317169 38.2472C0.526563 38.7527 0.833478 39.212 1.22039 39.5989C1.6073 39.9859 2.06663 40.2928 2.57215 40.5022C3.07768 40.7116 3.61949 40.8193 4.16667 40.8193H25.8333C26.3805 40.8193 26.9223 40.7116 27.4278 40.5022C27.9334 40.2928 28.3927 39.9859 28.7796 39.5989C29.1665 39.212 29.4734 38.7527 29.6828 38.2472C29.8922 37.7417 30 37.1998 30 36.6527V4.986C30 3.88093 29.561 2.82113 28.7796 2.03972C27.9982 1.25832 26.9384 0.819336 25.8333 0.819336ZM5 2.486H13.3333V6.65267C13.3333 6.87368 13.2455 7.08564 13.0893 7.24192C12.933 7.3982 12.721 7.486 12.5 7.486H5.83333C5.61232 7.486 5.40036 7.3982 5.24408 7.24192C5.0878 7.08564 5 6.87368 5 6.65267V2.486ZM28.3333 36.6527C28.3333 37.3157 28.0699 37.9516 27.6011 38.4204C27.1323 38.8893 26.4964 39.1527 25.8333 39.1527H4.16667C3.50363 39.1527 2.86774 38.8893 2.3989 38.4204C1.93006 37.9516 1.66667 37.3157 1.66667 36.6527V12.486H28.3333V36.6527ZM28.3333 10.8193H1.66667V4.986C1.66812 4.47022 1.82907 3.9675 2.12745 3.54678C2.42583 3.12606 2.84704 2.80793 3.33333 2.636V6.65267C3.33333 7.31571 3.59672 7.9516 4.06557 8.42044C4.53441 8.88928 5.17029 9.15267 5.83333 9.15267H12.5C13.163 9.15267 13.7989 8.88928 14.2678 8.42044C14.7366 7.9516 15 7.31571 15 6.65267V2.486H25.8333C26.4964 2.486 27.1323 2.74939 27.6011 3.21824C28.0699 3.68708 28.3333 4.32296 28.3333 4.986V10.8193ZM19.1667 7.486C19.0018 7.486 18.8407 7.53488 18.7037 7.62644C18.5667 7.71801 18.4598 7.84816 18.3968 8.00043C18.3337 8.1527 18.3172 8.32026 18.3493 8.48191C18.3815 8.64356 18.4609 8.79205 18.5774 8.90859C18.694 9.02514 18.8424 9.1045 19.0041 9.13666C19.1657 9.16881 19.3333 9.15231 19.4856 9.08924C19.6378 9.02616 19.768 8.91935 19.8596 8.78231C19.9511 8.64527 20 8.48415 20 8.31934C20 8.09832 19.9122 7.88636 19.7559 7.73008C19.5996 7.5738 19.3877 7.486 19.1667 7.486ZM15 32.486C16.3185 32.486 17.6075 32.095 18.7038 31.3625C19.8001 30.6299 20.6546 29.5887 21.1592 28.3706C21.6638 27.1524 21.7958 25.8119 21.5386 24.5187C21.2813 23.2255 20.6464 22.0376 19.714 21.1053C18.7817 20.1729 17.5938 19.538 16.3006 19.2808C15.0074 19.0235 13.667 19.1556 12.4488 19.6601C11.2306 20.1647 10.1894 21.0192 9.45687 22.1155C8.72433 23.2119 8.33333 24.5008 8.33333 25.8193C8.33333 27.5874 9.03571 29.2831 10.286 30.5334C11.5362 31.7836 13.2319 32.486 15 32.486ZM15 20.8193C16.1793 20.8225 17.3195 21.2424 18.2192 22.0048C19.1189 22.7673 19.7201 23.8232 19.9167 24.986H19.1667C18.9457 24.986 18.7337 25.0738 18.5774 25.2301C18.4211 25.3864 18.3333 25.5983 18.3333 25.8193C18.3333 26.0403 18.4211 26.2523 18.5774 26.4086C18.7337 26.5649 18.9457 26.6527 19.1667 26.6527H19.9167C19.7577 27.5932 19.333 28.4686 18.6927 29.1756C18.0524 29.8826 17.2233 30.3917 16.3031 30.6429C15.3829 30.894 14.4101 30.8767 13.4994 30.593C12.5887 30.3093 11.7782 29.771 11.1635 29.0417C10.5487 28.3123 10.1555 27.4224 10.03 26.4768C9.90459 25.5312 10.0522 24.5695 10.4556 23.7051C10.8589 22.8408 11.501 22.1098 12.3063 21.5984C13.1115 21.0871 14.0462 20.8168 15 20.8193Z" fill="black"/>
</svg>
