<svg width="58" height="59" viewBox="0 0 58 59" fill="none" xmlns="http://www.w3.org/2000/svg">
<path d="M28.9727 1.1814C44.7319 1.1814 57.4998 13.9499 57.5 29.6541C57.5 45.4128 44.7314 58.1814 28.9727 58.1814C13.2685 58.1812 0.5 45.4133 0.5 29.6541C0.500225 13.9495 13.2681 1.18162 28.9727 1.1814Z" stroke="#263585"/>
<path d="M22.7857 15.1814H24.8571V44.1814H22.7857V15.1814ZM33.1428 15.1814H35.2143V44.1814H33.1428V15.1814Z" fill="#263585"/>
<path d="M29 25.5385H18.6429V15.1814H20.7143V23.4671H26.9286V15.1814H29V25.5385ZM39.3572 33.8243H33.1429V15.1814H34.1786C37.033 15.1814 39.3572 17.5035 39.3572 20.36V33.8243ZM35.2143 31.7528H37.2857V20.36C37.2857 19.0094 36.4199 17.8577 35.2143 17.431V31.7528Z" fill="#263585"/>
</svg>
