<svg width="59" height="59" viewBox="0 0 59 59" fill="none" xmlns="http://www.w3.org/2000/svg">
<path d="M29.5 0.681396C13.4908 0.681396 0.5 13.6722 0.5 29.6814C0.5 45.6906 13.4908 58.6814 29.5 58.6814C45.5092 58.6814 58.5 45.6906 58.5 29.6814C58.5 13.6722 45.5092 0.681396 29.5 0.681396ZM29.5 1.88973C44.8555 1.88973 57.2917 14.3259 57.2917 29.6814C57.2917 45.0381 44.8555 57.4731 29.5 57.4731C14.1445 57.4731 1.70833 45.0381 1.70833 29.6814C1.70833 14.3259 14.1445 1.88973 29.5 1.88973ZM38.6386 16.3752V16.3776L20.371 16.3921C20.099 16.394 19.8303 16.453 19.5824 16.5652C19.3345 16.6773 19.1129 16.8403 18.9319 17.0434C18.596 17.4192 18.4003 17.8736 18.2685 18.3279L16.5358 24.32L16.2083 23.9901V21.8284C16.2083 21.6682 16.1447 21.5145 16.0314 21.4012C15.9181 21.2879 15.7644 21.2243 15.6042 21.2243H13.1875C13.0755 21.2242 12.9657 21.2552 12.8703 21.3139C12.775 21.3725 12.6978 21.4566 12.6474 21.5566L11.439 23.9756C11.3932 24.0677 11.3716 24.17 11.3763 24.2727C11.381 24.3755 11.4118 24.4753 11.4659 24.5628C11.52 24.6503 11.5955 24.7225 11.6854 24.7727C11.7752 24.8228 11.8763 24.8492 11.9792 24.8493H15.3589L16.015 25.5054L12.7791 28.5589C12.7191 28.6157 12.6714 28.6844 12.639 28.7604C12.6065 28.8365 12.5901 28.9184 12.5906 29.0011V38.9626L12.593 38.9239C12.5447 39.7118 13.109 40.3619 13.8267 40.5189C13.8058 40.5825 13.7956 40.649 13.7965 40.7159V42.0874C13.7965 43.2304 14.7269 44.1814 15.8688 44.1802H17.7683C18.9102 44.1802 19.8382 43.2304 19.8382 42.0874V40.5576H20.3457C20.4327 40.5717 20.5218 40.5666 20.6066 40.5426C20.6915 40.5187 20.7701 40.4764 20.8369 40.4188C20.9037 40.3613 20.957 40.2898 20.9932 40.2094C21.0295 40.129 21.0476 40.0416 21.0465 39.9534C21.0445 39.8734 21.0588 39.7939 21.0884 39.7196C21.118 39.6452 21.1624 39.5777 21.2189 39.521C21.2754 39.4643 21.3427 39.4196 21.417 39.3897C21.4912 39.3598 21.5707 39.3452 21.6507 39.3469H21.6531L37.359 39.3348C37.7046 39.3348 37.9632 39.5946 37.9632 39.9389C37.9623 40.0246 37.9796 40.1095 38.014 40.188C38.0484 40.2665 38.0992 40.3367 38.1628 40.3941C38.2265 40.4515 38.3016 40.4946 38.3832 40.5207C38.4648 40.5468 38.5511 40.5553 38.6362 40.5455H39.1908C39.1756 40.6006 39.1683 40.6576 39.1691 40.7147V42.0874C39.1691 43.2304 40.0971 44.1814 41.239 44.1802H43.1409C44.2828 44.1802 45.2108 43.228 45.2108 42.0849V40.496C45.9019 40.3268 46.4106 39.6912 46.4215 38.9602V28.9842C46.4215 28.9027 46.405 28.822 46.3731 28.7471C46.3411 28.6721 46.2943 28.6044 46.2354 28.548L43.0116 25.4704L43.646 24.8348H47.0257C47.1287 24.8348 47.23 24.8084 47.32 24.7582C47.41 24.708 47.4856 24.6357 47.5397 24.548C47.5939 24.4603 47.6247 24.3603 47.6292 24.2574C47.6338 24.1544 47.6119 24.052 47.5658 23.9599L46.3575 21.5457C46.3076 21.445 46.2306 21.3602 46.1352 21.3009C46.0398 21.2416 45.9297 21.21 45.8173 21.2098H43.4007C43.2404 21.2098 43.0868 21.2734 42.9735 21.3867C42.8602 21.5 42.7965 21.6537 42.7965 21.8139V23.9769L42.4751 24.2971L40.7411 18.3122C40.6082 17.8579 40.4161 17.4011 40.0802 17.0253C39.8986 16.8219 39.6763 16.6589 39.4278 16.5467C39.1793 16.4345 38.9101 16.3757 38.6374 16.374L38.6386 16.3752ZM38.6386 17.586C38.8924 17.586 39.0217 17.6609 39.1787 17.8361C39.3358 18.0113 39.4796 18.3049 39.5799 18.6505L41.4444 25.0813C40.2808 25.2964 35.7882 26.054 29.5048 26.054C23.2288 26.054 18.7386 25.3072 17.5677 25.0934L19.4298 18.665C19.53 18.3194 19.6775 18.0234 19.8333 17.8482C19.9904 17.673 20.1173 17.6005 20.371 17.6005H20.3735L38.6386 17.586ZM44.0036 22.4217H45.444L46.0481 23.6301H44.0048V22.4217H44.0036ZM13.5609 22.4338H15V23.6421H12.9567L13.5609 22.4338ZM42.022 26.2074L45.212 29.2524V38.9445C45.2095 39.1886 45.0549 39.3408 44.8519 39.3408H39.0603C38.936 38.9881 38.7059 38.6824 38.4015 38.4653C38.097 38.2481 37.7329 38.1302 37.359 38.1276L21.6507 38.1397C20.8689 38.1397 20.2031 38.6509 19.9517 39.3505H14.1626C13.9596 39.3505 13.788 39.1874 13.7989 38.9989C13.7993 38.9868 13.7993 38.9747 13.7989 38.9626V29.2609L17.0179 26.2219C17.5254 26.3222 22.4989 27.2647 29.5048 27.2623C36.5675 27.2623 41.5833 26.2944 42.022 26.2074ZM43.4381 30.8752V30.8776C41.7887 30.7786 40.3798 31.2885 39.4192 32.2745C38.4972 33.223 38.0296 34.586 37.991 36.1363C37.9728 36.1931 37.9849 36.813 37.9837 36.8734L37.9982 36.8939L38.5661 36.9145H43.3995C43.5597 36.9145 43.7134 36.8508 43.8267 36.7375C43.94 36.6242 44.0036 36.4706 44.0036 36.3103V31.477C44.0033 31.3236 43.9447 31.1762 43.8397 31.0644C43.7347 30.9527 43.5911 30.885 43.4381 30.8752ZM37.359 30.8776L21.6507 30.8897C21.5552 30.8897 21.461 30.9124 21.376 30.9558C21.2909 30.9992 21.2174 31.0622 21.1614 31.1396C21.1054 31.2169 21.0685 31.3064 21.0538 31.4008C21.039 31.4952 21.0469 31.5917 21.0767 31.6824L22.6488 36.5036C22.688 36.625 22.7647 36.7308 22.8678 36.8059C22.9709 36.881 23.0952 36.9216 23.2227 36.9217H35.7894C35.9169 36.9216 36.0412 36.881 36.1443 36.8059C36.2474 36.7308 36.324 36.625 36.3633 36.5036L37.9342 31.6691C37.9638 31.5783 37.9714 31.4819 37.9565 31.3876C37.9416 31.2933 37.9046 31.2039 37.8485 31.1266C37.7924 31.0494 37.7188 30.9866 37.6337 30.9433C37.5486 30.9 37.4545 30.8775 37.359 30.8776ZM15.5728 30.8897C15.4189 30.899 15.2744 30.9667 15.1688 31.079C15.0632 31.1913 15.0046 31.3398 15.0048 31.4939V36.3272C15.0048 36.4875 15.0685 36.6411 15.1818 36.7544C15.2951 36.8677 15.4488 36.9314 15.609 36.9314H20.4423C20.6026 36.9314 20.7562 36.8677 20.8695 36.7544C20.9828 36.6411 21.0465 36.4875 21.0465 36.3272C21.0465 34.696 20.5535 33.2738 19.5929 32.2866C18.6322 31.3006 17.2245 30.7919 15.574 30.8921V30.8897H15.5728ZM36.5277 32.0811L36.1362 33.2895L22.8783 33.3016L22.4832 32.0932L36.5277 32.0811ZM42.7965 32.1573V35.7134H39.2682C39.3781 34.6356 39.6995 33.7245 40.2856 33.1227C40.8752 32.5161 41.7392 32.2141 42.7965 32.1573ZM16.2132 32.1694C17.2717 32.2237 18.1368 32.5258 18.7265 33.1312C19.3137 33.7354 19.634 34.6476 19.7439 35.7279H16.2132V32.1694ZM35.7423 34.5051L35.3507 35.7158H23.6613L23.2698 34.5171L35.7423 34.5051ZM40.3557 40.5516H44.0024V42.091C44.006 42.2062 43.9863 42.3209 43.9446 42.4283C43.9028 42.5357 43.8399 42.6336 43.7595 42.7162C43.6791 42.7987 43.5829 42.8642 43.4766 42.9088C43.3703 42.9533 43.2561 42.976 43.1409 42.9755H41.239C41.1237 42.976 41.0096 42.9533 40.9033 42.9088C40.797 42.8642 40.7008 42.7987 40.6204 42.7162C40.54 42.6336 40.477 42.5357 40.4353 42.4283C40.3935 42.3209 40.3738 42.2062 40.3774 42.091V40.7195C40.3781 40.6628 40.3707 40.6063 40.3557 40.5516ZM14.9855 40.5636H18.6298V42.0922C18.6336 42.2075 18.614 42.3223 18.5724 42.4299C18.5307 42.5374 18.4678 42.6355 18.3873 42.7182C18.3069 42.8009 18.2106 42.8665 18.1043 42.9111C17.9979 42.9557 17.8836 42.9784 17.7683 42.9779H15.8688C15.7533 42.9784 15.639 42.9557 15.5325 42.9111C15.426 42.8665 15.3295 42.801 15.2489 42.7183C15.1683 42.6357 15.1052 42.5376 15.0632 42.4301C15.0213 42.3225 15.0014 42.2076 15.0048 42.0922V40.7219C15.0054 40.6686 14.9989 40.6153 14.9855 40.5636Z" fill="#263585"/>
</svg>
