<svg width="65" height="65" viewBox="0 0 65 65" fill="none" xmlns="http://www.w3.org/2000/svg">
<path d="M30.1648 24.0728C30.5053 24.0161 30.8552 24.0482 31.1795 24.1665C31.5036 24.2848 31.7915 24.4851 32.0154 24.7476L32.0193 24.7515C32.1404 24.8905 33.5229 26.4537 35.6756 27.5933C37.8382 28.7381 40.8276 29.4777 44.076 27.853V27.8521C44.3106 27.7347 44.5662 27.6647 44.8279 27.646C45.0898 27.6273 45.3532 27.6607 45.6023 27.7437C45.8514 27.8267 46.0817 27.9583 46.2801 28.1304C46.4784 28.3024 46.6412 28.5117 46.7586 28.7466V28.7476C46.8761 28.9823 46.9469 29.2377 46.9656 29.4995C46.9843 29.7615 46.9509 30.0248 46.868 30.2739C46.785 30.5229 46.6541 30.7533 46.4822 30.9517C46.3102 31.1501 46.0999 31.3127 45.865 31.4302C41.4503 33.6374 37.2488 32.8573 33.993 31.2065L33.1316 30.769L33.2722 31.7251C33.3967 32.5682 33.6382 33.5527 34.0623 34.6987L34.2556 35.2007C34.2601 35.2137 34.2643 35.229 34.2713 35.2446L34.3474 35.4165L34.5183 35.4956C38.4297 37.2987 44.1763 41.1405 45.3836 48.4585L45.4383 48.8091C45.5132 49.334 45.3764 49.8672 45.0584 50.2915C44.7401 50.7158 44.2661 50.9967 43.741 51.0718C43.2159 51.1468 42.682 51.0102 42.2576 50.6919C41.8334 50.3736 41.5533 49.8996 41.4783 49.3745C40.6585 43.6374 35.8711 40.5435 32.8064 39.1245L32.281 38.8813L32.117 39.436C31.2019 42.5239 28.3518 47.1115 19.783 50.9194C19.2983 51.1349 18.7478 51.1489 18.2527 50.9585C17.7576 50.7681 17.3588 50.3885 17.1433 49.9038C16.928 49.4192 16.9129 48.8686 17.1033 48.3735C17.2937 47.8786 17.6734 47.4796 18.158 47.2642C28.9183 42.4823 28.6069 36.9114 28.532 36.521C28.5335 36.5284 28.5329 36.5276 28.532 36.4937C28.5317 36.4818 28.531 36.4547 28.5301 36.4321C28.529 36.4064 28.5267 36.373 28.5222 36.3364L28.5164 36.2866L28.5008 36.2397L28.3553 35.7798C27.6632 33.5033 27.5337 31.5822 27.6971 30.0044L27.8035 28.9829L26.9334 29.5298C25.367 30.5156 23.8525 32.1402 23.8513 34.688C23.8513 35.2184 23.6405 35.728 23.2654 36.103C22.8904 36.4779 22.3816 36.6879 21.8513 36.688C21.3211 36.688 20.8123 36.4778 20.4373 36.103C20.0622 35.728 19.8513 35.2184 19.8513 34.688C19.852 31.1847 21.5118 28.6962 23.6385 26.9917C25.7783 25.2768 28.3765 24.371 30.1648 24.0728Z" stroke="#263585"/>
<path d="M35.536 12.1414C36.7403 12.1415 37.8953 12.6199 38.7469 13.4714C39.5985 14.3232 40.0771 15.4789 40.077 16.6833C40.0769 17.8877 39.5985 19.0427 38.7469 19.8943C37.8951 20.7459 36.7395 21.2245 35.535 21.2244C34.3307 21.2242 33.1756 20.7459 32.3241 19.8943C31.4725 19.0425 30.9939 17.8869 30.994 16.6824C30.9941 15.4781 31.4725 14.323 32.3241 13.4714C33.1758 12.6198 34.3315 12.1412 35.536 12.1414Z" stroke="#263585"/>
<mask id="mask0_591_283" style="mask-type:luminance" maskUnits="userSpaceOnUse" x="0" y="0" width="65" height="65">
<path d="M0.529999 64.6414V0.681396H64.47V64.6414H0.529999Z" fill="white"/>
</mask>
<g mask="url(#mask0_591_283)">
<path d="M32.47 1.14136C49.8669 1.14136 63.97 15.2445 63.97 32.6414C63.97 50.0382 49.8669 64.1414 32.47 64.1414C15.0731 64.1414 0.970001 50.0382 0.970001 32.6414C0.970001 15.2445 15.0731 1.14136 32.47 1.14136ZM31.5218 23.2273C31.0356 23.0499 30.5118 23.0008 30.0013 23.0857H30.0003C28.0767 23.4065 25.3105 24.3702 23.013 26.2117C20.702 28.0638 18.8514 30.8198 18.8509 34.6882C18.8509 35.4838 19.1672 36.2467 19.7298 36.8093C20.2923 37.3719 21.0553 37.6882 21.8509 37.6882C22.6465 37.6882 23.4093 37.3719 23.972 36.8093C24.5346 36.2467 24.8509 35.4839 24.8509 34.6882C24.8517 33.037 25.6182 31.845 26.636 30.9822C26.6042 32.5698 26.8487 34.4042 27.5305 36.489C27.5308 36.497 27.5311 36.5066 27.5315 36.5212C27.5326 36.5616 27.5356 36.6353 27.552 36.7175L27.553 36.7224C27.5031 36.4881 28.2506 41.6847 17.7522 46.3503C17.0252 46.6735 16.4558 47.2727 16.1702 48.0154C15.8848 48.7579 15.9057 49.5834 16.2288 50.3103C16.552 51.0374 17.1512 51.6068 17.8938 51.8923C18.6364 52.1778 19.4618 52.1559 20.1888 51.8328V51.8337C28.5062 48.1375 31.7159 43.6456 32.8938 40.2771C35.8489 41.7452 39.7845 44.596 40.4876 49.5164C40.6001 50.3039 41.0212 51.0146 41.6575 51.4919C42.294 51.9693 43.0945 52.1747 43.8821 52.0623C44.6696 51.9498 45.3803 51.5286 45.8577 50.8923C46.3351 50.2558 46.5405 49.4554 46.428 48.6677C45.2943 40.7355 39.2056 36.5977 35.1253 34.6775C34.8106 33.8728 34.5912 33.1573 34.4427 32.5222C37.7675 33.9715 41.9442 34.5092 46.3128 32.325C46.6651 32.1488 46.9795 31.9048 47.2376 31.6072C47.4957 31.3095 47.6922 30.9634 47.8167 30.5896C47.9411 30.2159 47.9912 29.8214 47.9632 29.4285C47.9351 29.0355 47.829 28.6518 47.6526 28.2996H47.6536C47.4775 27.9471 47.2334 27.6329 46.9358 27.3748C46.6383 27.1166 46.2929 26.9193 45.9192 26.7947C45.5454 26.6701 45.1501 26.6212 44.7571 26.6492C44.3642 26.6772 43.9805 26.7815 43.6282 26.9578C40.7626 28.391 38.1285 27.7594 36.1438 26.7087C34.6475 25.9166 33.5486 24.8991 33.0559 24.3972L32.7727 24.0955C32.4373 23.7034 32.0065 23.4042 31.5218 23.2273ZM35.5276 11.1414C34.0716 11.1621 32.6818 11.7547 31.6595 12.7917C30.6371 13.8288 30.0646 15.2271 30.0647 16.6833C30.0649 18.1395 30.638 19.5371 31.6604 20.574C32.6829 21.6108 34.0726 22.2039 35.5286 22.2244C36.2629 22.2346 36.9927 22.0989 37.6741 21.825C38.3553 21.551 38.9756 21.1442 39.4983 20.6287C40.0211 20.1131 40.4357 19.4984 40.719 18.821C41.0024 18.1436 41.1488 17.4167 41.1487 16.6824C41.1486 15.9481 41.0024 15.2211 40.719 14.5437C40.4355 13.8663 40.0203 13.2516 39.4973 12.7361C38.9744 12.2205 38.3536 11.8145 37.6721 11.5408C36.9908 11.2671 36.2618 11.1309 35.5276 11.1414Z" stroke="#263585"/>
</g>
</svg>
