<svg width="40" height="34" viewBox="0 0 40 34" fill="none" xmlns="http://www.w3.org/2000/svg">
<path d="M19.9984 22.0208C18.9102 22.0208 17.8465 22.3435 16.9416 22.9481C16.0368 23.5527 15.3316 24.412 14.9152 25.4174C14.4987 26.4227 14.3898 27.529 14.6021 28.5963C14.8144 29.6636 15.3384 30.644 16.1079 31.4135C16.8773 32.183 17.8577 32.707 18.925 32.9193C19.9923 33.1316 21.0986 33.0226 22.104 32.6062C23.1094 32.1898 23.9687 31.4845 24.5733 30.5797C25.1778 29.6749 25.5005 28.6111 25.5005 27.5229C25.5005 26.0637 24.9208 24.6642 23.889 23.6324C22.8572 22.6005 21.4577 22.0208 19.9984 22.0208ZM19.9984 29.357C19.6357 29.357 19.2811 29.2494 18.9795 29.0479C18.6779 28.8463 18.4428 28.5599 18.304 28.2248C18.1652 27.8897 18.1289 27.5209 18.1996 27.1651C18.2704 26.8094 18.4451 26.4826 18.7016 26.2261C18.9581 25.9696 19.2849 25.7949 19.6406 25.7241C19.9964 25.6534 20.3652 25.6897 20.7003 25.8285C21.0354 25.9673 21.3218 26.2024 21.5234 26.504C21.7249 26.8056 21.8325 27.1602 21.8325 27.5229C21.8325 28.0093 21.6392 28.4758 21.2953 28.8198C20.9513 29.1637 20.4849 29.357 19.9984 29.357ZM19.9984 14.6847C16.5958 14.6964 13.3346 16.0471 10.92 18.4445C10.5784 18.7881 10.3867 19.2529 10.3867 19.7375C10.3867 20.222 10.5784 20.6868 10.92 21.0305C11.2636 21.372 11.7285 21.5638 12.213 21.5638C12.6975 21.5638 13.1623 21.372 13.506 21.0305C14.3578 20.1765 15.3697 19.4989 16.4838 19.0366C17.5979 18.5743 18.7922 18.3364 19.9984 18.3364C21.2046 18.3364 22.399 18.5743 23.5131 19.0366C24.6271 19.4989 25.6391 20.1765 26.4909 21.0305C26.8295 21.376 27.291 21.5738 27.7747 21.5807C28.1468 21.6021 28.5167 21.5096 28.8349 21.3156C29.1531 21.1215 29.4047 20.8351 29.5561 20.4945C29.7075 20.1539 29.7515 19.7753 29.6822 19.409C29.613 19.0428 29.4338 18.7063 29.1686 18.4445C27.9618 17.2463 26.5309 16.2976 24.9575 15.6525C23.3841 15.0074 21.699 14.6785 19.9984 14.6847ZM19.9984 7.34859C14.6504 7.3628 9.52351 9.48472 5.72968 13.2542C5.55868 13.4252 5.42303 13.6282 5.33048 13.8516C5.23794 14.075 5.19031 14.3145 5.19031 14.5563C5.19031 15.0447 5.38432 15.5131 5.72968 15.8585C6.07503 16.2038 6.54343 16.3979 7.03184 16.3979C7.52025 16.3979 7.98865 16.2038 8.334 15.8585C11.4289 12.7674 15.6243 11.0312 19.9984 11.0312C24.3726 11.0312 28.5679 12.7674 31.6629 15.8585C31.8342 16.0285 32.0375 16.163 32.2609 16.2542C32.4844 16.3455 32.7237 16.3918 32.965 16.3904C33.2064 16.3918 33.4457 16.3455 33.6691 16.2542C33.8926 16.163 34.0958 16.0285 34.2672 15.8585C34.4391 15.688 34.5755 15.4851 34.6686 15.2617C34.7618 15.0382 34.8097 14.7984 34.8097 14.5563C34.8097 14.3142 34.7618 14.0745 34.6686 13.851C34.5755 13.6275 34.4391 13.4247 34.2672 13.2542C30.4734 9.48472 25.3465 7.3628 19.9984 7.34859ZM39.4575 8.06386C36.9027 5.50741 33.8692 3.47943 30.5303 2.0958C27.1914 0.712163 23.6126 0 19.9984 0C16.3842 0 12.8054 0.712163 9.46657 2.0958C6.1277 3.47943 3.09418 5.50741 0.539373 8.06386C0.194018 8.40921 0 8.87762 0 9.36602C0 9.85443 0.194018 10.3228 0.539373 10.6682C0.884728 11.0135 1.35313 11.2076 1.84153 11.2076C2.32994 11.2076 2.79834 11.0135 3.1437 10.6682C7.61466 6.19955 13.6772 3.68929 19.9984 3.68929C26.3197 3.68929 32.3822 6.19955 36.8532 10.6682C37.0237 10.8401 37.2265 10.9765 37.45 11.0696C37.6735 11.1627 37.9132 11.2107 38.1553 11.2107C38.3974 11.2107 38.6372 11.1627 38.8607 11.0696C39.0842 10.9765 39.287 10.8401 39.4575 10.6682C39.6294 10.4977 39.7658 10.2948 39.859 10.0713C39.9521 9.84785 40 9.60814 40 9.36602C40 9.12391 39.9521 8.88419 39.859 8.6607C39.7658 8.4372 39.6294 8.23436 39.4575 8.06386Z" fill="black"/>
</svg>
